<svg width="46" height="48" viewBox="0 0 46 48" fill="none" xmlns="http://www.w3.org/2000/svg">
<rect width="46" height="48" fill="#81B3D2"/>
<path d="M25.3 16.1667C27 15.6667 28.4 16.3667 29 17.2667C29.7 17.0667 30.4 16.7667 31.1 16.5667C31.1 17.3667 30.6 18.0667 30.2 18.2667C30.9 18.4667 31.5 17.7667 31.5 17.7667C31.3 18.7667 30.5 19.4667 29.9 19.7667C29.7 26.3667 26.6 30.7667 19.5 30.5667C19 30.5667 19.6 30.5667 19 30.5667C18.6 30.5667 14.7 30.1667 14 28.7667C16.3 28.9667 18 28.3667 18.8 27.6667C17.8 27.3667 16 27.1667 15.7 24.7667C16.1 24.8667 16.3 24.9667 17 24.8667C15.8 24.0667 14.4 23.3667 14.5 21.1667C14.8 21.4667 15.6 21.6667 15.9 21.6667C15.2 21.4667 13.9 18.3667 15 16.8667C16.9 18.6667 18.8 20.3667 22.4 20.5667C22.5 18.2667 23.5 16.7667 25.3 16.1667Z" fill="white"/>
</svg>
